<?xml version="1.0" encoding="iso-8859-1"?>
<!-- Generator: Adobe Illustrator 19.0.0, SVG Export Plug-In . SVG Version: 6.00 Build 0)  -->
<svg version="1.1" id="Capa_1" xmlns="http://www.w3.org/2000/svg" xmlns:xlink="http://www.w3.org/1999/xlink" x="0px" y="0px"
	 viewBox="0 0 512 512" style="enable-background:new 0 0 512 512;" xml:space="preserve">
<g>
	<g>
		<path d="M481.396,54.64c-2.013-4.447-6.288-7.435-11.155-7.795c-17.192-1.272-39.987-1.622-54.362,3.421
			c1.143-12.507,0.447-26.743-0.594-38.157c-0.444-4.859-3.504-9.08-7.986-11.016c-4.484-1.935-9.659-1.268-13.507,1.745
			c-14.614,11.445-33.311,28.044-39.392,42.122c-1.967,4.554-3.234,8.854-3.907,12.878c-5.567-7.216-11.792-14.177-17.386-20.049
			c-3.367-3.533-8.387-4.94-13.103-3.677c-4.715,1.266-8.355,4.999-9.5,9.744c-4.35,18.034-8.698,42.648-4.714,57.489
			c0.739,2.752,1.626,5.35,2.651,7.78c-9.946-14.335-28.273-29.613-43.093-40.673c-4.245-3.167-9.872-3.761-14.687-1.551
			c-4.815,2.212-8.03,6.869-8.392,12.155c-0.425,6.227-0.687,12.348-0.778,18.193c-0.065,4.142,3.24,7.552,7.382,7.616
			c0.04,0.001,0.08,0.001,0.12,0.001c4.087,0,7.433-3.281,7.497-7.383c0.083-5.275,0.311-10.795,0.679-16.418
			c22.188,16.648,37.592,32.055,42.319,42.342c7.663,16.677,5.19,30.36-6.453,35.712c-11.643,5.354-23.637-1.687-31.3-18.362
			c-1.502-3.271-2.712-7.75-3.596-13.314c-0.649-4.092-4.491-6.881-8.583-6.231c-4.091,0.649-6.88,4.492-6.231,8.583
			c1.113,7.013,2.677,12.647,4.78,17.226c1.503,3.27,3.131,6.225,4.859,8.888c-14.658-12.834-37.771-24.674-56.298-32.982
			c-5.167-2.311-11.176-1.615-15.682,1.817c-4.501,3.429-6.767,9.031-5.913,14.623c3.222,21.078,8.952,48.626,18.429,66.247
			c-2.109,2.017-4.203,4.14-6.32,6.288c-0.367,0.373-0.734,0.746-1.103,1.119c-16.587-7.226-35.061-12.885-48.162-16.47
			c-5.837-1.599-12.075,0.118-16.277,4.481c-4.206,4.367-5.688,10.672-3.868,16.454c1.846,5.866,4.573,14.094,7.946,23.044
			c-22.056,5.849-36.902,16.386-43.134,21.481c-7.268-1.43-14.758-0.402-21.5,3.029c-8.443,4.3-14.682,11.78-17.567,21.063
			c-3.977,12.794-0.553,26.296,7.798,35.466c-7.615,14.571-16.428,35.048-20.358,57.514c-0.714,4.08,2.015,7.966,6.096,8.68
			c0.437,0.076,0.872,0.113,1.301,0.113c3.575,0,6.742-2.565,7.379-6.209c3.458-19.768,11.118-38.012,17.988-51.429
			c0.584,0.236,1.175,0.46,1.777,0.665c1.83,0.624,32.073,10.776,78.135,17.225c-2.037,15.949-4.161,40.451-2.138,63.718
			c0.913,10.489,9.567,18.399,20.132,18.399h104.812c10.909,0,19.78-8.541,20.195-19.454c0.527-14.281,0.955-40.004-1.456-61.947
			c24.557-3.403,48.326-8.717,71.135-15.906c7.882,12.798,17.332,30.552,22.955,49.563c0.965,3.263,3.951,5.375,7.189,5.375
			c0.704,0,1.42-0.1,2.13-0.31c3.972-1.175,6.24-5.348,5.065-9.319c-5.777-19.534-15.187-37.657-23.317-51.117
			c12.803-8.45,19.124-25.102,14.37-40.783c-2.822-9.31-9.015-16.839-17.437-21.199c-2.872-1.487-5.886-2.529-8.962-3.136
			c6.512-2.719,12.348-5.378,16.845-7.506c5.119-2.416,8.502-7.427,8.83-13.076c0.328-5.656-2.457-11.029-7.27-14.024
			c-8.09-5.032-17.394-10.467-26.939-15.333c17.435-2.76,39.845-13.641,56.586-22.945c4.63-2.574,7.479-7.465,7.434-12.763
			c-0.045-5.298-2.975-10.14-7.646-12.635c-3.883-2.074-8.069-4.226-12.423-6.341c14.606-2.37,32.896-10.766,46.687-18.025
			c4.319-2.274,7.045-6.72,7.115-11.601c0.07-4.882-2.528-9.403-6.78-11.8c-2.911-1.641-6.03-3.341-9.274-5.025
			c2.299-0.716,4.628-1.59,6.98-2.654c14-6.338,30.265-25.314,41.446-40.119C482.832,64.27,483.409,59.089,481.396,54.64z
			 M368.17,50.909c3.548-8.214,15.311-20.646,32.443-34.341c1.532,18.93,0.971,34.538-1.556,43.643
			c-3.617,3.231-6.443,6.847-8.371,10.767c-0.931,1.892-1.639,3.838-2.137,5.813c-0.724,0.461-1.841,1.184-3.304,2.16
			c-3.717,1.774-7.658,1.825-11.621,0.11C364.33,75.041,362.292,64.517,368.17,50.909z M390.425,95.973
			c-1.036-0.113-2.046-0.188-3.03-0.221c0.796-0.568,1.553-1.104,2.263-1.601c0.218,0.567,0.45,1.132,0.704,1.693
			C390.382,95.888,390.405,95.929,390.425,95.973z M324.373,50.391c14.958,16.017,24.792,30.023,27.117,38.687
			c1.457,5.426,1.831,10.312,1.173,14.445c-4.755,3.958-9.823,8.342-15.108,13.134c-2.637-0.098-5.12-0.956-7.416-2.594
			c-4.375-3.123-7.785-8.864-9.863-16.604C317.95,88.795,319.446,71.747,324.373,50.391z M351.925,142.18
			c-3.473-0.631-6.781-0.989-9.836-0.989c-0.11,0-0.22,0-0.329,0.001c-3.019,0.025-5.922,0.233-8.709,0.601
			c3.845-3.799,7.625-7.403,11.31-10.81c0.517-0.111,1.033-0.225,1.55-0.364c0.635-0.17,1.257-0.365,1.871-0.572
			C348.248,134.435,349.659,138.543,351.925,142.18z M321.423,126.271c1.155,0.824,2.353,1.545,3.58,2.183
			c-2.156,2.101-4.335,4.269-6.529,6.492c-0.669-5.072-2.196-10.542-4.731-16.366C315.995,121.641,318.564,124.229,321.423,126.271z
			 M297.563,181.191c0.681,5.573,2.754,11.016,6.313,15.774c-7.117-0.273-13.699,0.365-19.606,1.854
			C288.622,192.707,293.069,186.829,297.563,181.191z M282.702,175.722c-3.097,3.994-6.17,8.103-9.207,12.326
			c-1.636-6.225-4.701-12.891-9.544-19.877C269.931,172.833,276.384,175.21,282.702,175.722z M189.896,137.102
			c-0.018-0.116-0.04-0.262,0.174-0.425c0.22-0.167,0.359-0.105,0.463-0.059c29.584,13.265,51.156,26.918,59.183,37.462
			c10.262,13.473,12.893,26.486,7.595,35.993c-3.054-2.051-5.542-4.079-7.911-6.011c-6.856-5.593-13.333-10.875-27.321-11.972
			c-6.194-0.49-11.588,1.152-16.578,4.047C199.339,183.418,193.788,162.564,189.896,137.102z M132.44,211.438
			c0.421-0.436,0.931-0.576,1.512-0.419c11.049,3.025,26.038,7.566,40.177,13.258c-7.839,6.481-16.779,11.579-28.433,12.682
			c-1.722,0.163-3.403,0.37-5.064,0.597c-3.661-9.516-6.612-18.396-8.556-24.572C131.891,212.4,132.014,211.88,132.44,211.438z
			 M147.109,251.893c20.659-1.956,34.546-13.431,45.632-24.321c0.089-0.08,0.171-0.167,0.257-0.252
			c1.681-1.656,3.299-3.298,4.866-4.888c9.75-9.896,16.082-15.919,23.044-15.389c9.313,0.731,12.964,3.709,19.013,8.643
			c7.054,5.754,15.833,12.914,35.373,18.921c32.382,9.945,50.763,17.7,58.417,30.937c-63.215,19.343-125.274,18.185-166.887,13.614
			c-28.647-3.146-51.775-8.308-65.64-11.914C110.949,261.214,126.651,253.829,147.109,251.893z M271.639,410.233
			c-0.107,2.813-2.393,5.016-5.205,5.016H161.622c-2.68,0-4.959-2.064-5.188-4.699c-1.909-21.958,0.128-45.303,2.076-60.538
			c18.113,2.036,38.193,3.384,59.61,3.384c17.707,0,35.108-0.93,52.164-2.738C272.572,371.567,272.149,396.416,271.639,410.233z
			 M360.368,278.473c4.796,2.484,8.34,6.827,9.978,12.23c3.316,10.938-2.37,22.625-12.674,26.051
			c-43.2,14.36-90.152,21.642-139.552,21.642c-83.221,0-145.189-20.801-147.786-21.687c-10.283-3.506-15.889-15.236-12.496-26.15
			c1.674-5.386,5.243-9.7,10.049-12.147c2.634-1.341,5.472-2.02,8.329-2.02c1.98,0,3.97,0.326,5.904,0.983
			c0.333,0.112,33.848,11.289,83.067,16.693c44.787,4.918,112.536,6.009,180.953-16.733
			C350.863,275.764,355.917,276.169,360.368,278.473z M368.781,240.144c0.105,0.066,0.236,0.147,0.22,0.421
			c-0.016,0.266-0.144,0.326-0.264,0.383c-6.52,3.085-15.951,7.323-26.074,11.151c-12.287-15.159-34.618-23.125-62.966-31.832
			c-1.276-0.392-2.478-0.79-3.647-1.19c6.382-5.235,16.329-7.765,28.602-7.064C317.892,212.777,341.268,223.03,368.781,240.144z
			 M398.199,176.498c-24.281,13.413-44.647,21.147-55.968,21.241c-18.327,0.188-29.821-7.713-29.928-20.525
			c-0.048-5.734,2.195-10.664,6.486-14.256c5.189-4.343,13.175-6.683,23.095-6.765c0.072-0.001,0.143-0.001,0.215-0.001
			C353.463,156.191,373.851,163.573,398.199,176.498z M386.347,143.046c-0.102,0-0.204-0.001-0.303-0.002
			c-8.013-0.115-14.417-2.013-18.518-5.487c-3.331-2.822-4.987-6.526-4.923-11.011c0.064-4.483,1.826-8.139,5.237-10.864
			c4.067-3.25,10.25-4.959,17.916-4.959c0.249,0,0.5,0.002,0.751,0.005c8.968,0.129,24.959,6.224,44.158,16.795
			C411.39,137.426,395.373,143.046,386.347,143.046z M432.26,94.618c-7.301,3.306-13.904,4.311-19.093,2.911
			c-4.215-1.137-7.29-3.785-9.139-7.87c-1.849-4.085-1.81-8.143,0.118-12.061c2.373-4.823,7.486-9.119,14.787-12.424
			c8.172-3.699,25.239-4.983,47.108-3.584C452.659,78.947,440.431,90.92,432.26,94.618z"/>
	</g>
</g>
<g>
	<g>
		<path d="M383.361,462.502c10.933-14.242,16.25-31.376,15.82-51.042c-0.091-4.142-3.53-7.436-7.662-7.334
			c-4.141,0.091-7.425,3.521-7.334,7.662c0.401,18.364-5.217,33.937-16.7,46.28c-1.425,1.532-2.146,3.589-1.987,5.676
			c0.158,2.086,1.181,4.011,2.82,5.311c7.204,5.709,10.195,11.552,10.592,15.115c0.224,2.01-0.354,2.992-0.81,3.556
			c-3.197,3.965-16.403,4.271-29.815-4.275c-1.572-1.001-3.081-2.09-4.487-3.236c-2.171-1.771-5.149-2.183-7.719-1.07
			c-27.371,11.849-66.335,17.856-115.812,17.856c-53.365,0-95.358-6.943-124.815-20.637c-2.821-1.313-6.161-0.745-8.391,1.425
			c-2.115,2.058-4.541,3.963-7.208,5.662c-13.415,8.546-26.619,8.24-29.816,4.275c-0.285-0.354-1.152-1.429-0.756-3.956
			c0.646-4.123,4.691-11.097,13.961-17.184c1.866-1.225,3.089-3.217,3.337-5.435c0.248-2.218-0.504-4.431-2.052-6.038
			c-11.632-12.076-18.41-26.961-20.147-44.239c-0.415-4.121-4.093-7.139-8.212-6.712c-4.122,0.414-7.126,4.091-6.712,8.212
			c1.791,17.815,8.086,33.542,18.74,46.857c-7.562,6.664-12.54,14.603-13.734,22.214c-0.933,5.949,0.415,11.377,3.898,15.696
			c9.27,11.496,30.573,11.049,49.554-1.041c2.012-1.282,3.929-2.661,5.732-4.122C124.75,505.267,167.313,512,220.267,512
			c49.194,0,88.759-5.853,117.707-17.401c0.738,0.516,1.489,1.017,2.25,1.502c18.979,12.091,40.282,12.539,49.553,1.041
			c3.26-4.042,4.657-9.103,4.041-14.633C393.07,475.807,389.349,468.771,383.361,462.502z"/>
	</g>
</g>
<g>
	<g>
		<path d="M264.538,240.236c-4.142,0-7.5,3.357-7.5,7.5v0.844c0,4.143,3.358,7.5,7.5,7.5c4.142,0,7.5-3.357,7.5-7.5v-0.844
			C272.039,243.595,268.681,240.236,264.538,240.236z"/>
	</g>
</g>
<g>
	<g>
		<path d="M239.604,242.182c-4.142,0-7.5,3.357-7.5,7.5v0.844c0,4.143,3.358,7.5,7.5,7.5c4.142,0,7.5-3.357,7.5-7.5v-0.844
			C247.104,245.54,243.746,242.182,239.604,242.182z"/>
	</g>
</g>
<g>
	<g>
		<path d="M221.497,220.926c-4.142,0-7.5,3.357-7.5,7.5v0.844c0,4.143,3.358,7.5,7.5,7.5c4.142,0,7.5-3.357,7.5-7.5v-0.844
			C228.997,224.283,225.639,220.926,221.497,220.926z"/>
	</g>
</g>
<g>
	<g>
		<path d="M200.737,244.001c-4.142,0-7.5,3.357-7.5,7.5v0.844c0,4.143,3.358,7.5,7.5,7.5c4.142,0,7.5-3.357,7.5-7.5v-0.844
			C208.238,247.358,204.88,244.001,200.737,244.001z"/>
	</g>
</g>
<g>
</g>
<g>
</g>
<g>
</g>
<g>
</g>
<g>
</g>
<g>
</g>
<g>
</g>
<g>
</g>
<g>
</g>
<g>
</g>
<g>
</g>
<g>
</g>
<g>
</g>
<g>
</g>
<g>
</g>
</svg>
