<svg width="30" height="30" viewBox="0 0 30 30" fill="none" xmlns="http://www.w3.org/2000/svg">
	<path fill-rule="evenodd" clip-rule="evenodd" d="M3.24698 12.6827L1.62475 13.5496C1.54862 13.5963 1.44852 13.6227 1.36101 13.6227C1.18622 13.6227 1.03132 13.5359 0.929298 13.3951C0.791752 13.1444 0.877912 12.8633 1.12318 12.7507L2.75201 11.88L1.17892 11.3038C0.921654 11.2092 0.793741 10.9296 0.896785 10.6926C0.999691 10.4559 1.30351 10.3382 1.56042 10.4327L3.87602 11.2721L5.33444 10.4967C5.27182 10.2958 5.23677 10.0919 5.23677 9.89666C5.23677 9.68051 5.26641 9.48417 5.33076 9.29464L3.87601 8.52124L1.57252 9.35565C1.53702 9.37198 1.49936 9.38019 1.45717 9.38407C1.43213 9.38637 1.41117 9.38688 1.37906 9.38683C1.16864 9.38683 0.970601 9.26535 0.896785 9.08413C0.793741 8.84709 0.921654 8.56756 1.17916 8.47278L2.75202 7.89669L1.12568 7.02729C0.883272 6.90338 0.794907 6.6151 0.941036 6.39115C1.07571 6.1681 1.38903 6.08678 1.63495 6.22257L3.26157 7.09209L3.0187 5.56924C2.96799 5.31257 3.1645 5.07388 3.4596 5.02506C3.73719 5.00184 3.98624 5.16851 4.03689 5.42537L4.38763 7.68452L5.84186 8.45765C6.13807 8.16169 6.53809 7.95319 6.98789 7.85724V6.30975L5.0172 4.9009C4.80929 4.73351 4.77094 4.45126 4.94893 4.24108C5.13086 4.04976 5.43763 4.01447 5.65968 4.17339L6.98789 5.12862V3.38511C6.98789 3.12618 7.21752 2.91489 7.49894 2.91489C7.78037 2.91489 8.01 3.12618 8.01 3.38511V5.12606L9.33849 4.15657C9.56714 3.99293 9.87772 4.02151 10.0545 4.23062C10.2323 4.44099 10.2013 4.72674 9.97459 4.88895L8.01 6.30929V7.85394C8.45008 7.93821 8.8533 8.15259 9.15624 8.45753L10.6103 7.68452L10.9619 5.4202C11.0132 5.16088 11.2726 4.98005 11.5515 5.02672C11.8334 5.07388 12.0299 5.31257 11.98 5.56459L11.7363 7.09213L13.3551 6.22707C13.5913 6.08215 13.9035 6.1558 14.0505 6.38162C14.208 6.59898 14.128 6.88617 13.8747 7.02598L12.2459 7.89669L13.819 8.47287C14.0762 8.56756 14.2041 8.84709 14.096 9.09459C13.9985 9.27394 13.8213 9.38683 13.6188 9.38683C13.5867 9.38688 13.5658 9.38637 13.5407 9.38407C13.4985 9.38019 13.4609 9.37198 13.4375 9.36061L11.1219 8.52125L9.66344 9.2966C9.72606 9.49758 9.76112 9.70147 9.76112 9.89666C9.76112 10.1128 9.73148 10.3092 9.66713 10.4987L11.1219 11.2721L13.4367 10.433C13.6944 10.3382 13.9982 10.4559 14.1011 10.6926C14.2041 10.9296 14.0762 11.2092 13.8187 11.3039L12.2459 11.88L13.8722 12.7494C14.1146 12.8733 14.203 13.1616 14.0599 13.3803C13.9802 13.527 13.8019 13.6227 13.6188 13.6227C13.5313 13.6227 13.4312 13.5963 13.3629 13.5542L11.7363 12.6846L11.9792 14.2075C12.0299 14.4642 11.8334 14.7028 11.5247 14.7522H11.4705C11.2108 14.7522 10.9858 14.5809 10.961 14.3513L10.6103 12.0922L9.15603 11.3191C8.85982 11.615 8.4598 11.8235 8.01 11.9195V13.4836L9.98069 14.8924C10.1886 15.0598 10.2269 15.3421 10.049 15.5523C9.86703 15.7436 9.56025 15.7789 9.33821 15.6199L8.01 14.6647V16.3916C8.01 16.6505 7.78037 16.8618 7.49894 16.8618C7.21752 16.8618 6.98789 16.6505 6.98789 16.3916V14.6697L5.67337 15.642C5.59218 15.7167 5.47334 15.7489 5.35067 15.7489C5.19589 15.7489 5.04484 15.6794 4.94341 15.5627C4.76558 15.3523 4.79664 15.0666 5.0233 14.9044L6.98789 13.484V11.9394C6.54781 11.8551 6.14458 11.6407 5.84165 11.3358L4.38762 12.1088L4.03548 14.3755C3.98531 14.6063 3.77928 14.7688 3.52734 14.7688C3.50698 14.7688 3.49683 14.7688 3.48668 14.7686C3.47659 14.7683 3.4665 14.7677 3.44639 14.7666L3.44634 14.7666C3.1645 14.7195 2.96798 14.4808 3.01766 14.2301L3.24698 12.6827ZM26.2403 9.09013C26.4356 8.91049 26.7522 8.91049 26.9474 9.09013C27.1427 9.26977 27.1427 9.56103 26.9474 9.74067L25.7333 10.8577C25.538 11.0373 25.2214 11.0373 25.0262 10.8577C24.8309 10.678 24.8309 10.3868 25.0262 10.2072L26.2403 9.09013ZM29.2077 9.21873C29.0124 9.03909 28.6958 9.03909 28.5005 9.21873L25.4219 12.0511C25.2266 12.2308 25.2266 12.522 25.4219 12.7017C25.6171 12.8813 25.9337 12.8813 26.129 12.7017L29.2077 9.86927C29.4029 9.68963 29.4029 9.39837 29.2077 9.21873ZM27.955 15.0363C27.2087 14.3421 26.1816 13.9657 25.0607 13.9657C24.6484 13.9657 24.2363 14.0211 23.8246 14.1319C23.9409 13.7777 24.0005 13.3978 24.0005 13.0143C24.0005 11.9808 23.5632 11.0218 22.7709 10.3216C22.5789 10.1429 22.2829 10.1429 22.0891 10.3232C21.3237 11.0727 20.9 12.0341 20.9 13.0503C20.9 14.0703 21.3264 14.9958 22.1277 15.7413C22.9235 16.4446 23.9158 16.812 25.0221 16.812C26.1428 16.812 27.2098 16.3992 27.9568 15.6677C28.0542 15.5771 28.1 15.4813 28.1 15.3528C28.1 15.2243 28.0542 15.1286 27.955 15.0363ZM22.4717 14.6918C22.08 14.1609 21.8734 13.6023 21.8734 13.0143C21.8734 12.4266 22.0707 11.8384 22.4345 11.3358C22.8299 11.8344 23.027 12.3931 23.027 13.0143C23.027 13.6329 22.8316 14.2203 22.4717 14.6918ZM25.0221 15.9444C25.6606 15.9444 26.2955 15.7468 26.8608 15.3891C26.3215 15.0519 25.6907 14.8692 25.0607 14.8692C24.3837 14.8692 23.7509 15.0576 23.2171 15.4218C23.7642 15.7676 24.3667 15.9444 25.0221 15.9444ZM24.955 17.7963C24.2087 17.1021 23.1816 16.7257 22.0607 16.7257C21.6484 16.7257 21.2363 16.7811 20.8246 16.8919C20.9409 16.5377 21.0005 16.1578 21.0005 15.7743C21.0005 14.7408 20.5632 13.7818 19.7709 13.0816C19.5789 12.9029 19.2829 12.9029 19.0891 13.0832C18.3237 13.8327 17.9 14.7941 17.9 15.8103C17.9 16.8303 18.3264 17.7558 19.1277 18.5013C19.9235 19.2046 20.9158 19.572 22.0221 19.572C23.1428 19.572 24.2098 19.1592 24.9568 18.4277C25.0542 18.3371 25.1 18.2414 25.1 18.1128C25.1 17.9843 25.0542 17.8886 24.955 17.7963ZM18.8734 15.7743C18.8734 16.3623 19.08 16.9209 19.4717 17.4518C19.8316 16.9803 20.027 16.3929 20.027 15.7743C20.027 15.1531 19.8299 14.5944 19.4345 14.0958C19.0707 14.5984 18.8734 15.1866 18.8734 15.7743ZM23.8608 18.1491C23.2955 18.5068 22.6606 18.7044 22.0221 18.7044C21.3667 18.7044 20.7642 18.5276 20.2171 18.1818C20.7509 17.8176 21.3837 17.6292 22.0607 17.6292C22.6907 17.6292 23.3215 17.8119 23.8608 18.1491ZM19.0607 19.4857C20.1816 19.4857 21.2087 19.8621 21.955 20.5563C22.0542 20.6486 22.1 20.7443 22.1 20.8728C22.1 21.0014 22.0542 21.0971 21.9568 21.1877C21.2098 21.9192 20.1428 22.332 19.0221 22.332C17.9158 22.332 16.9235 21.9646 16.1277 21.2613C15.3264 20.5158 14.9 19.5903 14.9 18.5703C14.9 17.5541 15.3237 16.5927 16.0891 15.8432C16.2829 15.6629 16.5789 15.6629 16.7709 15.8416C17.5632 16.5418 18.0005 17.5008 18.0005 18.5343C18.0005 18.9178 17.9409 19.2977 17.8246 19.6519C18.2363 19.5411 18.6484 19.4857 19.0607 19.4857ZM16.4717 20.2118C16.08 19.6809 15.8734 19.1223 15.8734 18.5343C15.8734 17.9466 16.0707 17.3584 16.4345 16.8558C16.8299 17.3544 17.027 17.9131 17.027 18.5343C17.027 19.1529 16.8316 19.7403 16.4717 20.2118ZM19.0221 21.4644C19.6606 21.4644 20.2955 21.2668 20.8608 20.9091C20.3215 20.5719 19.6907 20.3892 19.0607 20.3892C18.3837 20.3892 17.7509 20.5776 17.2171 20.9418C17.7642 21.2876 18.3667 21.4644 19.0221 21.4644ZM18.955 23.3163C18.2087 22.6221 17.1816 22.2457 16.0607 22.2457C15.6484 22.2457 15.2363 22.3011 14.8246 22.4119C14.9409 22.0577 15.0005 21.6778 15.0005 21.2943C15.0005 20.2608 14.5632 19.3018 13.7709 18.6016C13.5789 18.4229 13.2829 18.4229 13.0891 18.6032C12.3237 19.3527 11.9 20.3141 11.9 21.3303C11.9 22.3503 12.3264 23.2758 13.1277 24.0213C13.9235 24.7246 14.9158 25.092 16.0221 25.092C17.1428 25.092 18.2098 24.6792 18.9568 23.9477C19.0542 23.8571 19.1 23.7614 19.1 23.6328C19.1 23.5043 19.0542 23.4086 18.955 23.3163ZM12.8734 21.2943C12.8734 21.8823 13.08 22.4409 13.4717 22.9718C13.8316 22.5003 14.027 21.9128 14.027 21.2943C14.027 20.673 13.8299 20.1144 13.4345 19.6158C13.0707 20.1184 12.8734 20.7066 12.8734 21.2943ZM17.8608 23.6691C17.2955 24.0268 16.6606 24.2244 16.0221 24.2244C15.3667 24.2244 14.7642 24.0476 14.2171 23.7018C14.7509 23.3376 15.3837 23.1492 16.0607 23.1492C16.6907 23.1492 17.3215 23.3319 17.8608 23.6691ZM10.5027 27.0778L9.12897 28.3417C8.93371 28.5213 8.61713 28.5213 8.42187 28.3417C8.2266 28.162 8.2266 27.8708 8.42187 27.6911L9.7907 26.4318C9.20736 25.7543 8.89995 24.9563 8.89995 24.0903C8.89995 23.0741 9.32369 22.1127 10.0891 21.3632C10.2829 21.1829 10.5789 21.1829 10.7709 21.3616C11.5632 22.0618 12.0005 23.0208 12.0005 24.0543C12.0005 24.4378 11.9409 24.8177 11.8246 25.1719C12.2363 25.0611 12.6484 25.0057 13.0607 25.0057C14.1816 25.0057 15.2087 25.3821 15.955 26.0763C16.0542 26.1686 16.1 26.2643 16.1 26.3928C16.1 26.5214 16.0542 26.6171 15.9568 26.7077C15.2098 27.4392 14.1428 27.852 13.0221 27.852C12.0835 27.852 11.2268 27.5875 10.5027 27.0778ZM10.4717 25.7318C10.08 25.2009 9.87343 24.6423 9.87343 24.0543C9.87343 23.4666 10.0707 22.8784 10.4345 22.3758C10.8299 22.8744 11.027 23.4331 11.027 24.0543C11.027 24.6728 10.8316 25.2603 10.4717 25.7318ZM13.0221 26.9844C13.6606 26.9844 14.2955 26.7868 14.8608 26.4291C14.3215 26.0919 13.6907 25.9092 13.0607 25.9092C12.3837 25.9092 11.7509 26.0976 11.2171 26.4618C11.7642 26.8076 12.3667 26.9844 13.0221 26.9844ZM29.3474 11.2981C29.1522 11.1185 28.8356 11.1185 28.6403 11.2981L27.4262 12.4151C27.2309 12.5948 27.2309 12.886 27.4262 13.0657C27.6214 13.2453 27.938 13.2453 28.1333 13.0657L29.3474 11.9487C29.5427 11.769 29.5427 11.4778 29.3474 11.2981ZM7.49894 11.0377C6.80552 11.0377 6.25888 10.5347 6.25888 9.89666C6.25888 9.26459 6.81702 8.75561 7.49894 8.75561C8.18586 8.75561 8.73901 9.26917 8.73901 9.89666C8.73901 10.5287 8.18087 11.0377 7.49894 11.0377Z" fill="#333333"/>
	<mask id="mask0" mask-type="alpha" maskUnits="userSpaceOnUse" x="0" y="2" width="30" height="27">
		<path fill-rule="evenodd" clip-rule="evenodd" d="M3.24698 12.6827L1.62475 13.5496C1.54862 13.5963 1.44852 13.6227 1.36101 13.6227C1.18622 13.6227 1.03132 13.5359 0.929298 13.3951C0.791752 13.1444 0.877912 12.8633 1.12318 12.7507L2.75201 11.88L1.17892 11.3038C0.921654 11.2092 0.793741 10.9296 0.896785 10.6926C0.999691 10.4559 1.30351 10.3382 1.56042 10.4327L3.87602 11.2721L5.33444 10.4967C5.27182 10.2958 5.23677 10.0919 5.23677 9.89666C5.23677 9.68051 5.26641 9.48417 5.33076 9.29464L3.87601 8.52124L1.57252 9.35565C1.53702 9.37198 1.49936 9.38019 1.45717 9.38407C1.43213 9.38637 1.41117 9.38688 1.37906 9.38683C1.16864 9.38683 0.970601 9.26535 0.896785 9.08413C0.793741 8.84709 0.921654 8.56756 1.17916 8.47278L2.75202 7.89669L1.12568 7.02729C0.883272 6.90338 0.794907 6.6151 0.941036 6.39115C1.07571 6.1681 1.38903 6.08678 1.63495 6.22257L3.26157 7.09209L3.0187 5.56924C2.96799 5.31257 3.1645 5.07388 3.4596 5.02506C3.73719 5.00184 3.98624 5.16851 4.03689 5.42537L4.38763 7.68452L5.84186 8.45765C6.13807 8.16169 6.53809 7.95319 6.98789 7.85724V6.30975L5.0172 4.9009C4.80929 4.73351 4.77094 4.45126 4.94893 4.24108C5.13086 4.04976 5.43763 4.01447 5.65968 4.17339L6.98789 5.12862V3.38511C6.98789 3.12618 7.21752 2.91489 7.49894 2.91489C7.78037 2.91489 8.01 3.12618 8.01 3.38511V5.12606L9.33849 4.15657C9.56714 3.99293 9.87772 4.02151 10.0545 4.23062C10.2323 4.44099 10.2013 4.72674 9.97459 4.88895L8.01 6.30929V7.85394C8.45008 7.93821 8.8533 8.15259 9.15624 8.45753L10.6103 7.68452L10.9619 5.4202C11.0132 5.16088 11.2726 4.98005 11.5515 5.02672C11.8334 5.07388 12.0299 5.31257 11.98 5.56459L11.7363 7.09213L13.3551 6.22707C13.5913 6.08215 13.9035 6.1558 14.0505 6.38162C14.208 6.59898 14.128 6.88617 13.8747 7.02598L12.2459 7.89669L13.819 8.47287C14.0762 8.56756 14.2041 8.84709 14.096 9.09459C13.9985 9.27394 13.8213 9.38683 13.6188 9.38683C13.5867 9.38688 13.5658 9.38637 13.5407 9.38407C13.4985 9.38019 13.4609 9.37198 13.4375 9.36061L11.1219 8.52125L9.66344 9.2966C9.72606 9.49758 9.76112 9.70147 9.76112 9.89666C9.76112 10.1128 9.73148 10.3092 9.66713 10.4987L11.1219 11.2721L13.4367 10.433C13.6944 10.3382 13.9982 10.4559 14.1011 10.6926C14.2041 10.9296 14.0762 11.2092 13.8187 11.3039L12.2459 11.88L13.8722 12.7494C14.1146 12.8733 14.203 13.1616 14.0599 13.3803C13.9802 13.527 13.8019 13.6227 13.6188 13.6227C13.5313 13.6227 13.4312 13.5963 13.3629 13.5542L11.7363 12.6846L11.9792 14.2075C12.0299 14.4642 11.8334 14.7028 11.5247 14.7522H11.4705C11.2108 14.7522 10.9858 14.5809 10.961 14.3513L10.6103 12.0922L9.15603 11.3191C8.85982 11.615 8.4598 11.8235 8.01 11.9195V13.4836L9.98069 14.8924C10.1886 15.0598 10.2269 15.3421 10.049 15.5523C9.86703 15.7436 9.56025 15.7789 9.33821 15.6199L8.01 14.6647V16.3916C8.01 16.6505 7.78037 16.8618 7.49894 16.8618C7.21752 16.8618 6.98789 16.6505 6.98789 16.3916V14.6697L5.67337 15.642C5.59218 15.7167 5.47334 15.7489 5.35067 15.7489C5.19589 15.7489 5.04484 15.6794 4.94341 15.5627C4.76558 15.3523 4.79664 15.0666 5.0233 14.9044L6.98789 13.484V11.9394C6.54781 11.8551 6.14458 11.6407 5.84165 11.3358L4.38762 12.1088L4.03548 14.3755C3.98531 14.6063 3.77928 14.7688 3.52734 14.7688C3.50698 14.7688 3.49683 14.7688 3.48668 14.7686C3.47659 14.7683 3.4665 14.7677 3.44639 14.7666L3.44634 14.7666C3.1645 14.7195 2.96798 14.4808 3.01766 14.2301L3.24698 12.6827ZM26.2403 9.09013C26.4356 8.91049 26.7522 8.91049 26.9474 9.09013C27.1427 9.26977 27.1427 9.56103 26.9474 9.74067L25.7333 10.8577C25.538 11.0373 25.2214 11.0373 25.0262 10.8577C24.8309 10.678 24.8309 10.3868 25.0262 10.2072L26.2403 9.09013ZM29.2077 9.21873C29.0124 9.03909 28.6958 9.03909 28.5005 9.21873L25.4219 12.0511C25.2266 12.2308 25.2266 12.522 25.4219 12.7017C25.6171 12.8813 25.9337 12.8813 26.129 12.7017L29.2077 9.86927C29.4029 9.68963 29.4029 9.39837 29.2077 9.21873ZM27.955 15.0363C27.2087 14.3421 26.1816 13.9657 25.0607 13.9657C24.6484 13.9657 24.2363 14.0211 23.8246 14.1319C23.9409 13.7777 24.0005 13.3978 24.0005 13.0143C24.0005 11.9808 23.5632 11.0218 22.7709 10.3216C22.5789 10.1429 22.2829 10.1429 22.0891 10.3232C21.3237 11.0727 20.9 12.0341 20.9 13.0503C20.9 14.0703 21.3264 14.9958 22.1277 15.7413C22.9235 16.4446 23.9158 16.812 25.0221 16.812C26.1428 16.812 27.2098 16.3992 27.9568 15.6677C28.0542 15.5771 28.1 15.4813 28.1 15.3528C28.1 15.2243 28.0542 15.1286 27.955 15.0363ZM22.4717 14.6918C22.08 14.1609 21.8734 13.6023 21.8734 13.0143C21.8734 12.4266 22.0707 11.8384 22.4345 11.3358C22.8299 11.8344 23.027 12.3931 23.027 13.0143C23.027 13.6329 22.8316 14.2203 22.4717 14.6918ZM25.0221 15.9444C25.6606 15.9444 26.2955 15.7468 26.8608 15.3891C26.3215 15.0519 25.6907 14.8692 25.0607 14.8692C24.3837 14.8692 23.7509 15.0576 23.2171 15.4218C23.7642 15.7676 24.3667 15.9444 25.0221 15.9444ZM24.955 17.7963C24.2087 17.1021 23.1816 16.7257 22.0607 16.7257C21.6484 16.7257 21.2363 16.7811 20.8246 16.8919C20.9409 16.5377 21.0005 16.1578 21.0005 15.7743C21.0005 14.7408 20.5632 13.7818 19.7709 13.0816C19.5789 12.9029 19.2829 12.9029 19.0891 13.0832C18.3237 13.8327 17.9 14.7941 17.9 15.8103C17.9 16.8303 18.3264 17.7558 19.1277 18.5013C19.9235 19.2046 20.9158 19.572 22.0221 19.572C23.1428 19.572 24.2098 19.1592 24.9568 18.4277C25.0542 18.3371 25.1 18.2414 25.1 18.1128C25.1 17.9843 25.0542 17.8886 24.955 17.7963ZM18.8734 15.7743C18.8734 16.3623 19.08 16.9209 19.4717 17.4518C19.8316 16.9803 20.027 16.3929 20.027 15.7743C20.027 15.1531 19.8299 14.5944 19.4345 14.0958C19.0707 14.5984 18.8734 15.1866 18.8734 15.7743ZM23.8608 18.1491C23.2955 18.5068 22.6606 18.7044 22.0221 18.7044C21.3667 18.7044 20.7642 18.5276 20.2171 18.1818C20.7509 17.8176 21.3837 17.6292 22.0607 17.6292C22.6907 17.6292 23.3215 17.8119 23.8608 18.1491ZM19.0607 19.4857C20.1816 19.4857 21.2087 19.8621 21.955 20.5563C22.0542 20.6486 22.1 20.7443 22.1 20.8728C22.1 21.0014 22.0542 21.0971 21.9568 21.1877C21.2098 21.9192 20.1428 22.332 19.0221 22.332C17.9158 22.332 16.9235 21.9646 16.1277 21.2613C15.3264 20.5158 14.9 19.5903 14.9 18.5703C14.9 17.5541 15.3237 16.5927 16.0891 15.8432C16.2829 15.6629 16.5789 15.6629 16.7709 15.8416C17.5632 16.5418 18.0005 17.5008 18.0005 18.5343C18.0005 18.9178 17.9409 19.2977 17.8246 19.6519C18.2363 19.5411 18.6484 19.4857 19.0607 19.4857ZM16.4717 20.2118C16.08 19.6809 15.8734 19.1223 15.8734 18.5343C15.8734 17.9466 16.0707 17.3584 16.4345 16.8558C16.8299 17.3544 17.027 17.9131 17.027 18.5343C17.027 19.1529 16.8316 19.7403 16.4717 20.2118ZM19.0221 21.4644C19.6606 21.4644 20.2955 21.2668 20.8608 20.9091C20.3215 20.5719 19.6907 20.3892 19.0607 20.3892C18.3837 20.3892 17.7509 20.5776 17.2171 20.9418C17.7642 21.2876 18.3667 21.4644 19.0221 21.4644ZM18.955 23.3163C18.2087 22.6221 17.1816 22.2457 16.0607 22.2457C15.6484 22.2457 15.2363 22.3011 14.8246 22.4119C14.9409 22.0577 15.0005 21.6778 15.0005 21.2943C15.0005 20.2608 14.5632 19.3018 13.7709 18.6016C13.5789 18.4229 13.2829 18.4229 13.0891 18.6032C12.3237 19.3527 11.9 20.3141 11.9 21.3303C11.9 22.3503 12.3264 23.2758 13.1277 24.0213C13.9235 24.7246 14.9158 25.092 16.0221 25.092C17.1428 25.092 18.2098 24.6792 18.9568 23.9477C19.0542 23.8571 19.1 23.7614 19.1 23.6328C19.1 23.5043 19.0542 23.4086 18.955 23.3163ZM12.8734 21.2943C12.8734 21.8823 13.08 22.4409 13.4717 22.9718C13.8316 22.5003 14.027 21.9128 14.027 21.2943C14.027 20.673 13.8299 20.1144 13.4345 19.6158C13.0707 20.1184 12.8734 20.7066 12.8734 21.2943ZM17.8608 23.6691C17.2955 24.0268 16.6606 24.2244 16.0221 24.2244C15.3667 24.2244 14.7642 24.0476 14.2171 23.7018C14.7509 23.3376 15.3837 23.1492 16.0607 23.1492C16.6907 23.1492 17.3215 23.3319 17.8608 23.6691ZM10.5027 27.0778L9.12897 28.3417C8.93371 28.5213 8.61713 28.5213 8.42187 28.3417C8.2266 28.162 8.2266 27.8708 8.42187 27.6911L9.7907 26.4318C9.20736 25.7543 8.89995 24.9563 8.89995 24.0903C8.89995 23.0741 9.32369 22.1127 10.0891 21.3632C10.2829 21.1829 10.5789 21.1829 10.7709 21.3616C11.5632 22.0618 12.0005 23.0208 12.0005 24.0543C12.0005 24.4378 11.9409 24.8177 11.8246 25.1719C12.2363 25.0611 12.6484 25.0057 13.0607 25.0057C14.1816 25.0057 15.2087 25.3821 15.955 26.0763C16.0542 26.1686 16.1 26.2643 16.1 26.3928C16.1 26.5214 16.0542 26.6171 15.9568 26.7077C15.2098 27.4392 14.1428 27.852 13.0221 27.852C12.0835 27.852 11.2268 27.5875 10.5027 27.0778ZM10.4717 25.7318C10.08 25.2009 9.87343 24.6423 9.87343 24.0543C9.87343 23.4666 10.0707 22.8784 10.4345 22.3758C10.8299 22.8744 11.027 23.4331 11.027 24.0543C11.027 24.6728 10.8316 25.2603 10.4717 25.7318ZM13.0221 26.9844C13.6606 26.9844 14.2955 26.7868 14.8608 26.4291C14.3215 26.0919 13.6907 25.9092 13.0607 25.9092C12.3837 25.9092 11.7509 26.0976 11.2171 26.4618C11.7642 26.8076 12.3667 26.9844 13.0221 26.9844ZM29.3474 11.2981C29.1522 11.1185 28.8356 11.1185 28.6403 11.2981L27.4262 12.4151C27.2309 12.5948 27.2309 12.886 27.4262 13.0657C27.6214 13.2453 27.938 13.2453 28.1333 13.0657L29.3474 11.9487C29.5427 11.769 29.5427 11.4778 29.3474 11.2981ZM7.49894 11.0377C6.80552 11.0377 6.25888 10.5347 6.25888 9.89666C6.25888 9.26459 6.81702 8.75561 7.49894 8.75561C8.18586 8.75561 8.73901 9.26917 8.73901 9.89666C8.73901 10.5287 8.18087 11.0377 7.49894 11.0377Z" fill="white"/>
	</mask>
</svg>
